<?xml version="1.0" encoding="UTF-8"?>
<!DOCTYPE svg PUBLIC "-//W3C//DTD SVG 1.1//EN" "http://www.w3.org/Graphics/SVG/1.1/DTD/svg11.dtd">
<svg xmlns="http://www.w3.org/2000/svg" xmlns:xlink="http://www.w3.org/1999/xlink" version="1.1" width="2858px" height="1408px" viewBox="-0.5 -0.5 2858 1408" style="background-color: rgb(255, 255, 255);"><defs/><g><rect x="750" y="900" width="2100" height="500" fill="#ffffff" stroke="#000000" stroke-width="5" pointer-events="all"/><g fill="#000000" font-family="Helvetica" text-anchor="middle" font-size="60px"><text x="1799.5" y="1174.5">ROS</text></g><path d="M 1440.59 650 L 1559.41 650" fill="none" stroke="#000000" stroke-width="5" stroke-miterlimit="10" pointer-events="stroke"/><path d="M 1405.59 650 L 1440.59 632.5 L 1440.59 667.5 Z" fill="#000000" stroke="#000000" stroke-width="5" stroke-miterlimit="10" pointer-events="all"/><path d="M 1594.41 650 L 1559.41 667.5 L 1559.41 632.5 Z" fill="#000000" stroke="#000000" stroke-width="5" stroke-miterlimit="10" pointer-events="all"/><path d="M 1100 840.59 L 1100 959.41" fill="none" stroke="#000000" stroke-width="5" stroke-miterlimit="10" pointer-events="stroke"/><path d="M 1100 805.59 L 1117.5 840.59 L 1082.5 840.59 Z" fill="#000000" stroke="#000000" stroke-width="5" stroke-miterlimit="10" pointer-events="all"/><path d="M 1100 994.41 L 1082.5 959.41 L 1117.5 959.41 Z" fill="#000000" stroke="#000000" stroke-width="5" stroke-miterlimit="10" pointer-events="all"/><rect x="800" y="500" width="600" height="300" fill="#ffffff" stroke="#000000" stroke-width="5" pointer-events="all"/><g fill="#000000" font-family="Helvetica" text-anchor="middle" font-size="60px"><text x="1099.5" y="674.5">ArduPilot SITL</text></g><path d="M 2500 840.59 L 2500 959.41" fill="none" stroke="#000000" stroke-width="5" stroke-miterlimit="10" pointer-events="stroke"/><path d="M 2500 805.59 L 2517.5 840.59 L 2482.5 840.59 Z" fill="#000000" stroke="#000000" stroke-width="5" stroke-miterlimit="10" pointer-events="all"/><path d="M 2500 994.41 L 2482.5 959.41 L 2517.5 959.41 Z" fill="#000000" stroke="#000000" stroke-width="5" stroke-miterlimit="10" pointer-events="all"/><rect x="2200" y="500" width="600" height="300" fill="#ffffff" stroke="#000000" stroke-width="5" pointer-events="all"/><g fill="#000000" font-family="Helvetica" text-anchor="middle" font-size="60px"><text x="2499.5" y="674.5">Gazebo</text></g><path d="M 640.59 650 L 759.41 650" fill="none" stroke="#000000" stroke-width="5" stroke-miterlimit="10" pointer-events="stroke"/><path d="M 605.59 650 L 640.59 632.5 L 640.59 667.5 Z" fill="#000000" stroke="#000000" stroke-width="5" stroke-miterlimit="10" pointer-events="all"/><path d="M 794.41 650 L 759.41 667.5 L 759.41 632.5 Z" fill="#000000" stroke="#000000" stroke-width="5" stroke-miterlimit="10" pointer-events="all"/><rect x="0" y="500" width="600" height="300" fill="#ffffff" stroke="#000000" stroke-width="5" pointer-events="all"/><g fill="#000000" font-family="Helvetica" text-anchor="middle" font-size="60px"><text x="299.5" y="674.5">MAVProxy</text></g><path d="M 300 340.59 L 300 459.41" fill="none" stroke="#000000" stroke-width="5" stroke-miterlimit="10" pointer-events="stroke"/><path d="M 300 305.59 L 317.5 340.59 L 282.5 340.59 Z" fill="#000000" stroke="#000000" stroke-width="5" stroke-miterlimit="10" pointer-events="all"/><path d="M 300 494.41 L 282.5 459.41 L 317.5 459.41 Z" fill="#000000" stroke="#000000" stroke-width="5" stroke-miterlimit="10" pointer-events="all"/><rect x="0" y="0" width="600" height="300" fill="#ffffff" stroke="#000000" stroke-width="5" pointer-events="all"/><g fill="#000000" font-family="Helvetica" text-anchor="middle" font-size="60px"><text x="299.5" y="174.5">QGroundControl</text></g><ellipse cx="1100" cy="1150" rx="250" ry="150.00000000000003" fill="#ffffff" stroke="#000000" stroke-width="5" pointer-events="all"/><g fill="#000000" font-family="Helvetica" text-anchor="middle" font-size="60px"><text x="1099.5" y="1174.5">mavros</text></g><ellipse cx="2500" cy="1150" rx="250" ry="150.00000000000003" fill="#ffffff" stroke="#000000" stroke-width="5" pointer-events="all"/><g fill="#000000" font-family="Helvetica" text-anchor="middle" font-size="60px"><text x="2499.5" y="1174.5">gazebo_ros</text></g><rect x="1600" y="500" width="600" height="300" fill="#ffffff" stroke="#000000" stroke-width="5" pointer-events="all"/><g fill="#000000" font-family="Helvetica" text-anchor="middle" font-size="60px"><text x="1899.5" y="639.5">ArduPilot-Gazebo</text><text x="1899.5" y="709.5">Plugin</text></g><rect x="800" y="0" width="600" height="300" fill="#ffffff" stroke="#000000" stroke-width="5" pointer-events="all"/><g fill="#000000" font-family="Helvetica" text-anchor="middle" font-size="60px"><text x="1099.5" y="174.5">mavdrone.py</text></g><rect x="2200" y="0" width="600" height="300" fill="#ffffff" stroke="#000000" stroke-width="5" pointer-events="all"/><g fill="#000000" font-family="Helvetica" text-anchor="middle" font-size="60px"><text x="2499.5" y="174.5">gazebo.py</text></g><path d="M 2500 340.59 L 2500 459.41" fill="none" stroke="#000000" stroke-width="5" stroke-miterlimit="10" pointer-events="stroke"/><path d="M 2500 305.59 L 2517.5 340.59 L 2482.5 340.59 Z" fill="#000000" stroke="#000000" stroke-width="5" stroke-miterlimit="10" pointer-events="all"/><path d="M 2500 494.41 L 2482.5 459.41 L 2517.5 459.41 Z" fill="#000000" stroke="#000000" stroke-width="5" stroke-miterlimit="10" pointer-events="all"/><path d="M 1100 340.59 L 1100 459.41" fill="none" stroke="#000000" stroke-width="5" stroke-miterlimit="10" pointer-events="stroke"/><path d="M 1100 305.59 L 1117.5 340.59 L 1082.5 340.59 Z" fill="#000000" stroke="#000000" stroke-width="5" stroke-miterlimit="10" pointer-events="all"/><path d="M 1100 494.41 L 1082.5 459.41 L 1117.5 459.41 Z" fill="#000000" stroke="#000000" stroke-width="5" stroke-miterlimit="10" pointer-events="all"/></g></svg>