<?xml version="1.0" encoding="UTF-8"?>
<!DOCTYPE svg PUBLIC "-//W3C//DTD SVG 1.1//EN" "http://www.w3.org/Graphics/SVG/1.1/DTD/svg11.dtd">
<svg xmlns="http://www.w3.org/2000/svg" xmlns:xlink="http://www.w3.org/1999/xlink" version="1.1" width="533px" height="274px" viewBox="-0.5 -0.5 533 274" style="background-color: rgb(255, 255, 255);"><defs/><g><rect x="1" y="61" width="120" height="60" fill="#ffffff" stroke="#000000" pointer-events="all"/><g fill="#000000" font-family="Helvetica" text-anchor="middle" font-size="12px"><text x="60.5" y="95.5">AP_OABendyRuler</text></g><path d="M 153.29 131 L 141 131 L 141 91 L 121 91" fill="none" stroke="#000000" stroke-miterlimit="10" pointer-events="stroke"/><path d="M 160.29 131 L 156.79 134.5 L 153.29 131 L 156.79 127.5 Z" fill="#000000" stroke="#000000" stroke-miterlimit="10" pointer-events="all"/><path d="M 153.29 131 L 141 131 L 141 171 L 121 171" fill="none" stroke="#000000" stroke-miterlimit="10" pointer-events="stroke"/><path d="M 160.29 131 L 156.79 134.5 L 153.29 131 L 156.79 127.5 Z" fill="#000000" stroke="#000000" stroke-miterlimit="10" pointer-events="all"/><rect x="161" y="101" width="120" height="60" fill="#ffffff" stroke="#000000" pointer-events="all"/><g fill="#000000" font-family="Helvetica" text-anchor="middle" font-size="12px"><text x="220.5" y="135.5">AP_OAPathPlanner</text></g><rect x="1" y="141" width="120" height="60" fill="#ffffff" stroke="#000000" pointer-events="all"/><g fill="#000000" font-family="Helvetica" text-anchor="middle" font-size="12px"><text x="60.5" y="175.5">AP_OADijkstra</text></g><path d="M 431 101 L 431 69.12" fill="none" stroke="#000000" stroke-miterlimit="10" pointer-events="stroke"/><path d="M 431 62.12 L 434.5 69.12 L 427.5 69.12 Z" fill="none" stroke="#000000" stroke-miterlimit="10" pointer-events="all"/><rect x="401" y="101" width="120" height="60" fill="#ffffff" stroke="#000000" pointer-events="all"/><g fill="#000000" font-family="Helvetica" text-anchor="middle" font-size="12px"><text x="460.5" y="135.5">AC_WPNav_OA</text></g><rect x="401" y="1" width="120" height="60" fill="#ffffff" stroke="#000000" pointer-events="all"/><g fill="#000000" font-family="Helvetica" text-anchor="middle" font-size="12px"><text x="460.5" y="35.5">AC_WPNav</text></g><path d="M 281.5 138.21 L 281.5 123.79 L 380.31 123.79 L 380.31 113.29 L 400.5 131 L 380.31 148.71 L 380.31 138.21 Z" fill="none" stroke="#000000" stroke-linejoin="round" stroke-miterlimit="10" pointer-events="all"/><g fill="#000000" font-family="Helvetica" text-anchor="middle" font-size="11px"><rect fill="#ffffff" stroke="none" x="295" y="125" width="93" height="14" stroke-width="0"/><text x="340.5" y="135">Mission Avoidance</text></g><path d="M 498.38 100.5 L 483.62 100.5 L 483.62 81.31 L 473.12 81.31 L 491 61.5 L 508.88 81.31 L 498.38 81.31 Z" fill="none" stroke="#000000" stroke-linejoin="round" stroke-miterlimit="10" pointer-events="all"/><g fill="#000000" font-family="Helvetica" text-anchor="middle" font-size="11px"><rect fill="#ffffff" stroke="none" x="453" y="75" width="78" height="14" stroke-width="0"/><text x="490.5" y="85">Update WPNav</text></g><rect x="141" y="131" width="20" height="20" fill="none" stroke="none" pointer-events="all"/><g fill="#000000" font-family="Helvetica" text-anchor="middle" font-size="12px"><text x="150.5" y="145.5">1</text></g><rect x="121" y="171" width="20" height="20" fill="none" stroke="none" pointer-events="all"/><g fill="#000000" font-family="Helvetica" text-anchor="middle" font-size="12px"><text x="130.5" y="185.5">1</text></g><rect x="121" y="91" width="20" height="20" fill="none" stroke="none" pointer-events="all"/><g fill="#000000" font-family="Helvetica" text-anchor="middle" font-size="12px"><text x="130.5" y="105.5">1</text></g><rect x="401.5" y="212" width="120" height="60" fill="#ffffff" stroke="#000000" pointer-events="all"/><g fill="#000000" font-family="Helvetica" text-anchor="middle" font-size="12px"><text x="461" y="246.5">mode_auto</text></g><path d="M 466.5 211.47 L 456.5 211.53 L 456.31 180.53 L 445.81 180.6 L 461.19 161.5 L 476.81 180.4 L 466.31 180.47 Z" fill="none" stroke="#000000" stroke-linejoin="round" stroke-miterlimit="10" pointer-events="all"/><g fill="#000000" font-family="Helvetica" text-anchor="middle" font-size="11px"><rect fill="#ffffff" stroke="none" x="423" y="180" width="78" height="14" stroke-width="0"/><text x="460.84" y="190.17">Update WPNav</text></g></g></svg>