<?xml version="1.0" encoding="UTF-8"?>
<!DOCTYPE svg PUBLIC "-//W3C//DTD SVG 1.1//EN" "http://www.w3.org/Graphics/SVG/1.1/DTD/svg11.dtd">
<svg xmlns="http://www.w3.org/2000/svg" xmlns:xlink="http://www.w3.org/1999/xlink" version="1.1" width="963px" height="364px" viewBox="-0.5 -0.5 963 364" style="background-color: rgb(255, 255, 255);"><defs/><g><rect x="641" y="221" width="320" height="120" fill="#ffffff" stroke="#000000" pointer-events="all"/><rect x="481" y="221" width="160" height="120" fill="#ffffff" stroke="#000000" pointer-events="all"/><rect x="1" y="1" width="480" height="340" fill="#ffffff" stroke="#000000" pointer-events="all"/><path d="M 241 241 L 241 209.12" fill="none" stroke="#000000" stroke-miterlimit="10" pointer-events="stroke"/><path d="M 241 202.12 L 244.5 209.12 L 237.5 209.12 Z" fill="none" stroke="#000000" stroke-miterlimit="10" pointer-events="all"/><rect x="181" y="121" width="120" height="60" fill="#ffffff" stroke="#000000" pointer-events="all"/><g fill="#000000" font-family="Helvetica" text-anchor="middle" font-size="12px"><text x="240.5" y="155.5">SIM_Aircraft</text></g><rect x="181" y="241" width="120" height="60" fill="#ffffff" stroke="#000000" pointer-events="all"/><g fill="#000000" font-family="Helvetica" text-anchor="middle" font-size="12px"><text x="240.5" y="275.5">SIM_Gazebo</text></g><rect x="21" y="121" width="120" height="60" fill="#ffffff" stroke="#000000" pointer-events="all"/><g fill="#000000" font-family="Helvetica" text-anchor="middle" font-size="12px"><text x="80.5" y="155.5">sitl_fdm</text></g><path d="M 81 88.71 L 81 121" fill="none" stroke="#000000" stroke-miterlimit="10" pointer-events="stroke"/><path d="M 81 81.71 L 84.5 85.21 L 81 88.71 L 77.5 85.21 Z" fill="#000000" stroke="#000000" stroke-miterlimit="10" pointer-events="all"/><rect x="21" y="21" width="120" height="60" fill="#ffffff" stroke="#000000" pointer-events="all"/><g fill="#000000" font-family="Helvetica" text-anchor="middle" font-size="12px"><text x="80.5" y="55.5">SITL</text></g><rect x="181" y="181" width="120" height="20" fill="#ffffff" stroke="#000000" pointer-events="all"/><g fill="#000000" font-family="Helvetica" text-anchor="middle" font-size="12px"><text x="240.5" y="195.5">fdm_data</text></g><path d="M 180.5 143.29 L 180.5 158.71 L 158.92 158.71 L 158.92 169.21 L 141.5 151 L 158.92 132.79 L 158.92 143.29 Z" fill="none" stroke="#000000" stroke-linejoin="round" stroke-miterlimit="10" pointer-events="all"/><g fill="#000000" font-family="Helvetica" text-anchor="middle" font-size="11px"><rect fill="#ffffff" stroke="none" x="156" y="145" width="12" height="14" stroke-width="0"/><text x="160.5" y="155">fill</text></g><rect x="181" y="301" width="120" height="20" fill="#ffffff" stroke="#000000" pointer-events="all"/><g fill="#000000" font-family="Helvetica" text-anchor="middle" font-size="12px"><text x="240.5" y="315.5">fdm_packet</text></g><rect x="501" y="241" width="120" height="60" fill="#ffffff" stroke="#000000" pointer-events="all"/><g fill="#000000" font-family="Helvetica" text-anchor="middle" font-size="12px"><text x="560.5" y="275.5">ArduPilotPlugin</text></g><path d="M 500.5 262.71 L 500.5 279.29 L 320.07 279.29 L 320.07 289.79 L 301.5 271 L 320.07 252.21 L 320.07 262.71 Z" fill="#ffffff" stroke="#000000" stroke-linejoin="round" stroke-miterlimit="10" pointer-events="all"/><g fill="#000000" font-family="Helvetica" text-anchor="middle" font-size="11px"><rect fill="#ffffff" stroke="none" x="388" y="265" width="26" height="14" stroke-width="0"/><text x="400.5" y="275">send</text></g><path d="M 173.29 51 L 141 51" fill="none" stroke="#000000" stroke-miterlimit="10" pointer-events="stroke"/><path d="M 180.29 51 L 176.79 54.5 L 173.29 51 L 176.79 47.5 Z" fill="#000000" stroke="#000000" stroke-miterlimit="10" pointer-events="all"/><path d="M 241 88.71 L 241 121" fill="none" stroke="#000000" stroke-miterlimit="10" pointer-events="stroke"/><path d="M 241 81.71 L 244.5 85.21 L 241 88.71 L 237.5 85.21 Z" fill="#000000" stroke="#000000" stroke-miterlimit="10" pointer-events="all"/><path d="M 308.71 51 L 401 51 L 401 121" fill="none" stroke="#000000" stroke-miterlimit="10" pointer-events="stroke"/><path d="M 301.71 51 L 305.21 47.5 L 308.71 51 L 305.21 54.5 Z" fill="#000000" stroke="#000000" stroke-miterlimit="10" pointer-events="all"/><rect x="181" y="21" width="120" height="60" fill="#ffffff" stroke="#000000" pointer-events="all"/><g fill="#000000" font-family="Helvetica" text-anchor="middle" font-size="12px"><text x="240.5" y="55.5">SITL_State</text></g><rect x="341" y="121" width="120" height="60" fill="#ffffff" stroke="#000000" pointer-events="all"/><g fill="#000000" font-family="Helvetica" text-anchor="middle" font-size="12px"><text x="400.5" y="148.5">SIM_</text><text x="400.5" y="162.5">SerialRangeFinder</text></g><path d="M 301.5 159.28 L 301.5 142.72 L 319.8 142.72 L 319.8 132.22 L 340.5 151 L 319.8 169.78 L 319.8 159.28 Z" fill="none" stroke="#000000" stroke-linejoin="round" stroke-miterlimit="10" pointer-events="all"/><g fill="#000000" font-family="Helvetica" text-anchor="middle" font-size="11px"><rect fill="#ffffff" stroke="none" x="304" y="145" width="36" height="14" stroke-width="0"/><text x="320.5" y="155">update</text></g><rect x="661" y="241" width="120" height="60" fill="#ffffff" stroke="#000000" pointer-events="all"/><g fill="#000000" font-family="Helvetica" text-anchor="middle" font-size="12px"><text x="720.5" y="275.5">laser/scan topic</text></g><rect x="825" y="241" width="120" height="60" fill="#ffffff" stroke="#000000" pointer-events="all"/><g fill="#000000" font-family="Helvetica" text-anchor="middle" font-size="12px"><text x="884.5" y="268.5">model with ray </text><text x="884.5" y="282.5">sensor (lidar)</text></g><rect x="1" y="341" width="480" height="20" fill="#ffffff" stroke="#000000" pointer-events="all"/><g fill="#000000" font-family="Helvetica" text-anchor="middle" font-size="12px"><text x="240.5" y="355.5">ArduPilot Firmware</text></g><rect x="481" y="341" width="160" height="20" fill="#ffffff" stroke="#000000" pointer-events="all"/><g fill="#000000" font-family="Helvetica" text-anchor="middle" font-size="12px"><text x="560.5" y="355.5">ArduPilot Gazebo Plugin</text></g><path d="M 660.5 261 L 660.5 281 L 640.97 281 L 640.97 291.5 L 621.5 271 L 640.97 250.5 L 640.97 261 Z" fill="#ffffff" stroke="#000000" stroke-linejoin="round" stroke-miterlimit="10" pointer-events="all"/><g fill="#000000" font-family="Helvetica" text-anchor="middle" font-size="11px"><rect fill="#ffffff" stroke="none" x="629" y="265" width="24" height="14" stroke-width="0"/><text x="640.5" y="275">read</text></g><path d="M 824.5 261 L 824.5 281 L 800.97 281 L 800.97 291.5 L 781.5 271 L 800.97 250.5 L 800.97 261 Z" fill="#ffffff" stroke="#000000" stroke-linejoin="round" stroke-miterlimit="10" pointer-events="all"/><g fill="#000000" font-family="Helvetica" text-anchor="middle" font-size="11px"><text x="804.83" y="275">publish</text></g><rect x="641" y="341" width="320" height="20" fill="#ffffff" stroke="#000000" pointer-events="all"/><g fill="#000000" font-family="Helvetica" text-anchor="middle" font-size="12px"><text x="800.5" y="355.5">Gazebo</text></g><rect x="501" y="301" width="120" height="20" fill="#ffffff" stroke="#000000" pointer-events="all"/><g fill="#000000" font-family="Helvetica" text-anchor="middle" font-size="12px"><text x="560.5" y="315.5">fdmPacket</text></g><rect x="241" y="101" width="20" height="20" fill="none" stroke="none" pointer-events="all"/><g fill="#000000" font-family="Helvetica" text-anchor="middle" font-size="12px"><text x="250.5" y="115.5">1</text></g><rect x="401" y="101" width="20" height="20" fill="none" stroke="none" pointer-events="all"/><g fill="#000000" font-family="Helvetica" text-anchor="middle" font-size="12px"><text x="410.5" y="115.5">1</text></g><rect x="141" y="51" width="20" height="20" fill="none" stroke="none" pointer-events="all"/><g fill="#000000" font-family="Helvetica" text-anchor="middle" font-size="12px"><text x="150.5" y="65.5">1</text></g><rect x="81" y="101" width="20" height="20" fill="none" stroke="none" pointer-events="all"/><g fill="#000000" font-family="Helvetica" text-anchor="middle" font-size="12px"><text x="90.5" y="115.5">1</text></g><rect x="81" y="81" width="20" height="20" fill="none" stroke="none" pointer-events="all"/><g fill="#000000" font-family="Helvetica" text-anchor="middle" font-size="12px"><text x="90.5" y="95.5">1</text></g><rect x="161" y="51" width="20" height="20" fill="none" stroke="none" pointer-events="all"/><g fill="#000000" font-family="Helvetica" text-anchor="middle" font-size="12px"><text x="170.5" y="65.5">1</text></g><rect x="301" y="51" width="20" height="20" fill="none" stroke="none" pointer-events="all"/><g fill="#000000" font-family="Helvetica" text-anchor="middle" font-size="12px"><text x="310.5" y="65.5">1</text></g></g></svg>